<svg width="929" height="778" viewBox="0 0 929 778" fill="none" xmlns="http://www.w3.org/2000/svg">
<g filter="url(#filter0_d_409_1714)">
<rect x="56" y="56" width="812" height="661" rx="18.5112" fill="white"/>
</g>
<circle cx="463.456" cy="325.517" r="47.5166" fill="#3DC00F"/>
<path d="M442.074 329.555L454.188 342.462L491.967 315.3" stroke="white" stroke-width="8.35631" stroke-linecap="round"/>
<path d="M235.699 478V453.272H240.943V478H235.699ZM269.105 478H262.44L251.683 459.293H251.531C251.576 460.071 251.615 460.855 251.649 461.644C251.683 462.433 251.717 463.223 251.751 464.012C251.785 464.79 251.818 465.574 251.852 466.363V478H247.167V453.272H253.78L264.521 471.793H264.639C264.617 471.026 264.589 470.265 264.555 469.509C264.521 468.754 264.487 467.998 264.453 467.243C264.431 466.487 264.408 465.732 264.386 464.976V453.272H269.105V478ZM280.505 478H275.346V453.272H289.52V457.568H280.505V463.944H288.894V468.224H280.505V478ZM316.802 465.602C316.802 467.508 316.565 469.244 316.092 470.812C315.618 472.368 314.897 473.709 313.927 474.837C312.968 475.965 311.751 476.833 310.273 477.442C308.796 478.039 307.048 478.338 305.03 478.338C303.012 478.338 301.264 478.039 299.787 477.442C298.31 476.833 297.086 475.965 296.116 474.837C295.158 473.709 294.442 472.362 293.968 470.795C293.495 469.227 293.258 467.485 293.258 465.568C293.258 463.009 293.675 460.781 294.51 458.887C295.355 456.981 296.652 455.504 298.4 454.456C300.148 453.407 302.369 452.883 305.064 452.883C307.748 452.883 309.952 453.407 311.677 454.456C313.414 455.504 314.699 456.981 315.534 458.887C316.379 460.793 316.802 463.031 316.802 465.602ZM298.755 465.602C298.755 467.327 298.969 468.816 299.398 470.067C299.837 471.308 300.52 472.266 301.444 472.943C302.369 473.608 303.564 473.941 305.03 473.941C306.519 473.941 307.725 473.608 308.65 472.943C309.574 472.266 310.245 471.308 310.662 470.067C311.091 468.816 311.305 467.327 311.305 465.602C311.305 463.009 310.82 460.968 309.851 459.479C308.881 457.991 307.285 457.246 305.064 457.246C303.587 457.246 302.38 457.585 301.444 458.261C300.52 458.927 299.837 459.885 299.398 461.137C298.969 462.377 298.755 463.865 298.755 465.602ZM329.133 453.272C331.377 453.272 333.226 453.542 334.68 454.084C336.146 454.625 337.234 455.442 337.945 456.536C338.655 457.63 339.01 459.011 339.01 460.68C339.01 461.808 338.796 462.794 338.368 463.64C337.939 464.486 337.375 465.202 336.676 465.788C335.977 466.374 335.222 466.854 334.41 467.226L341.683 478H335.864L329.961 468.511H327.171V478H321.927V453.272H329.133ZM328.761 457.568H327.171V464.249H328.862C330.599 464.249 331.839 463.961 332.583 463.386C333.339 462.8 333.716 461.943 333.716 460.815C333.716 459.643 333.31 458.808 332.499 458.312C331.698 457.816 330.452 457.568 328.761 457.568ZM355.265 478L349.311 458.6H349.159C349.181 459.062 349.215 459.761 349.26 460.697C349.317 461.622 349.367 462.608 349.413 463.657C349.458 464.706 349.48 465.653 349.48 466.498V478H344.795V453.272H351.933L357.785 472.182H357.887L364.094 453.272H371.232V478H366.344V466.295C366.344 465.517 366.355 464.621 366.377 463.606C366.411 462.591 366.451 461.627 366.496 460.714C366.541 459.789 366.575 459.096 366.597 458.633H366.445L360.068 478H355.265ZM392.611 478L390.818 472.114H381.803L380.01 478H374.361L383.088 453.17H389.499L398.26 478H392.611ZM389.567 467.716L387.774 461.965C387.661 461.582 387.509 461.092 387.317 460.494C387.137 459.885 386.951 459.27 386.759 458.65C386.578 458.019 386.432 457.472 386.319 457.01C386.206 457.472 386.048 458.047 385.845 458.735C385.654 459.411 385.468 460.054 385.287 460.663C385.107 461.272 384.977 461.706 384.898 461.965L383.122 467.716H389.567ZM410.929 478H405.686V457.635H398.971V453.272H417.644V457.635H410.929V478ZM421.45 478V453.272H426.693V478H421.45ZM455.362 465.602C455.362 467.508 455.125 469.244 454.652 470.812C454.178 472.368 453.457 473.709 452.487 474.837C451.528 475.965 450.311 476.833 448.833 477.442C447.356 478.039 445.608 478.338 443.59 478.338C441.572 478.338 439.824 478.039 438.347 477.442C436.87 476.833 435.646 475.965 434.676 474.837C433.718 473.709 433.002 472.362 432.528 470.795C432.055 469.227 431.818 467.485 431.818 465.568C431.818 463.009 432.235 460.781 433.07 458.887C433.915 456.981 435.212 455.504 436.96 454.456C438.708 453.407 440.929 452.883 443.624 452.883C446.308 452.883 448.512 453.407 450.237 454.456C451.974 455.504 453.259 456.981 454.094 458.887C454.939 460.793 455.362 463.031 455.362 465.602ZM437.315 465.602C437.315 467.327 437.529 468.816 437.958 470.067C438.397 471.308 439.08 472.266 440.004 472.943C440.929 473.608 442.124 473.941 443.59 473.941C445.079 473.941 446.285 473.608 447.21 472.943C448.134 472.266 448.805 471.308 449.222 470.067C449.651 468.816 449.865 467.327 449.865 465.602C449.865 463.009 449.38 460.968 448.411 459.479C447.441 457.991 445.845 457.246 443.624 457.246C442.147 457.246 440.94 457.585 440.004 458.261C439.08 458.927 438.397 459.885 437.958 461.137C437.529 462.377 437.315 463.865 437.315 465.602ZM482.425 478H475.761L465.003 459.293H464.851C464.896 460.071 464.936 460.855 464.969 461.644C465.003 462.433 465.037 463.223 465.071 464.012C465.105 464.79 465.139 465.574 465.172 466.363V478H460.487V453.272H467.101L477.841 471.793H477.959C477.937 471.026 477.909 470.265 477.875 469.509C477.841 468.754 477.807 467.998 477.773 467.243C477.751 466.487 477.728 465.732 477.706 464.976V453.272H482.425V478ZM512.261 471.133C512.261 472.599 511.906 473.873 511.196 474.955C510.485 476.038 509.448 476.872 508.083 477.459C506.73 478.045 505.084 478.338 503.144 478.338C502.288 478.338 501.447 478.282 500.624 478.169C499.812 478.056 499.029 477.893 498.273 477.679C497.529 477.453 496.819 477.177 496.142 476.85V471.979C497.315 472.497 498.533 472.965 499.796 473.382C501.058 473.8 502.31 474.008 503.55 474.008C504.407 474.008 505.095 473.896 505.614 473.67C506.144 473.444 506.527 473.134 506.764 472.74C507.001 472.345 507.119 471.894 507.119 471.387C507.119 470.766 506.911 470.236 506.493 469.797C506.076 469.357 505.501 468.945 504.768 468.562C504.047 468.179 503.229 467.767 502.316 467.327C501.741 467.057 501.115 466.73 500.438 466.346C499.762 465.952 499.119 465.472 498.51 464.909C497.901 464.345 497.399 463.663 497.005 462.862C496.621 462.05 496.43 461.08 496.43 459.953C496.43 458.476 496.768 457.213 497.444 456.164C498.121 455.115 499.085 454.315 500.337 453.762C501.6 453.198 503.088 452.916 504.802 452.916C506.088 452.916 507.311 453.069 508.472 453.373C509.645 453.666 510.869 454.095 512.143 454.659L510.451 458.735C509.312 458.273 508.292 457.917 507.39 457.669C506.488 457.41 505.569 457.28 504.633 457.28C503.979 457.28 503.421 457.387 502.958 457.602C502.496 457.805 502.147 458.098 501.91 458.481C501.673 458.853 501.555 459.287 501.555 459.784C501.555 460.37 501.724 460.866 502.062 461.272C502.412 461.667 502.93 462.05 503.618 462.422C504.317 462.794 505.185 463.228 506.223 463.725C507.486 464.322 508.563 464.948 509.453 465.602C510.356 466.245 511.049 467.006 511.534 467.885C512.019 468.754 512.261 469.836 512.261 471.133ZM536.871 453.272V469.272C536.871 470.975 536.493 472.514 535.738 473.89C534.994 475.254 533.86 476.337 532.338 477.137C530.827 477.938 528.922 478.338 526.621 478.338C523.351 478.338 520.859 477.504 519.145 475.835C517.431 474.166 516.574 471.956 516.574 469.205V453.272H521.801V468.41C521.801 470.451 522.218 471.883 523.052 472.706C523.887 473.529 525.122 473.941 526.757 473.941C527.907 473.941 528.837 473.743 529.547 473.349C530.269 472.954 530.799 472.345 531.137 471.522C531.476 470.699 531.645 469.65 531.645 468.376V453.272H536.871ZM542.926 453.272H550.622C553.915 453.272 556.407 453.734 558.098 454.659C559.79 455.583 560.635 457.207 560.635 459.53C560.635 460.466 560.483 461.311 560.179 462.067C559.886 462.822 559.457 463.443 558.893 463.928C558.329 464.412 557.642 464.728 556.83 464.875V465.044C557.653 465.213 558.397 465.506 559.062 465.923C559.728 466.329 560.258 466.927 560.652 467.716C561.058 468.494 561.261 469.532 561.261 470.828C561.261 472.328 560.895 473.614 560.162 474.685C559.429 475.756 558.38 476.579 557.016 477.154C555.663 477.718 554.05 478 552.178 478H542.926V453.272ZM548.17 463.065H551.214C552.737 463.065 553.791 462.828 554.377 462.354C554.964 461.87 555.257 461.159 555.257 460.223C555.257 459.276 554.907 458.6 554.208 458.194C553.52 457.776 552.426 457.568 550.927 457.568H548.17V463.065ZM548.17 467.226V473.67H551.586C553.165 473.67 554.264 473.366 554.885 472.757C555.505 472.148 555.815 471.33 555.815 470.304C555.815 469.695 555.68 469.16 555.409 468.697C555.138 468.235 554.682 467.874 554.039 467.615C553.407 467.355 552.534 467.226 551.417 467.226H548.17ZM576.67 478L570.716 458.6H570.564C570.586 459.062 570.62 459.761 570.665 460.697C570.722 461.622 570.773 462.608 570.818 463.657C570.863 464.706 570.885 465.653 570.885 466.498V478H566.2V453.272H573.338L579.19 472.182H579.292L585.499 453.272H592.637V478H587.749V466.295C587.749 465.517 587.76 464.621 587.782 463.606C587.816 462.591 587.856 461.627 587.901 460.714C587.946 459.789 587.98 459.096 588.002 458.633H587.85L581.474 478H576.67ZM598.878 478V453.272H604.121V478H598.878ZM619.885 478H614.642V457.635H607.927V453.272H626.6V457.635H619.885V478ZM639.945 478H634.702V457.635H627.987V453.272H646.66V457.635H639.945V478ZM664.708 478H650.466V453.272H664.708V457.568H655.709V462.997H664.082V467.293H655.709V473.67H664.708V478ZM690.4 465.399C690.4 468.184 689.864 470.513 688.793 472.385C687.733 474.245 686.194 475.649 684.176 476.596C682.157 477.532 679.727 478 676.886 478H669.883V453.272H677.647C680.24 453.272 682.49 453.734 684.396 454.659C686.301 455.572 687.778 456.931 688.827 458.735C689.876 460.528 690.4 462.749 690.4 465.399ZM684.954 465.534C684.954 463.708 684.683 462.208 684.142 461.035C683.612 459.851 682.823 458.977 681.774 458.414C680.736 457.85 679.451 457.568 677.917 457.568H675.127V473.67H677.376C679.936 473.67 681.836 472.988 683.076 471.623C684.328 470.259 684.954 468.229 684.954 465.534ZM364.754 518.133C364.754 519.599 364.398 520.873 363.688 521.955C362.978 523.038 361.94 523.872 360.576 524.459C359.223 525.045 357.576 525.338 355.637 525.338C354.78 525.338 353.94 525.282 353.117 525.169C352.305 525.056 351.521 524.893 350.766 524.679C350.021 524.453 349.311 524.177 348.635 523.85V518.979C349.807 519.497 351.025 519.965 352.288 520.382C353.551 520.8 354.803 521.008 356.043 521.008C356.9 521.008 357.588 520.896 358.106 520.67C358.636 520.444 359.02 520.134 359.257 519.74C359.493 519.345 359.612 518.894 359.612 518.387C359.612 517.766 359.403 517.236 358.986 516.797C358.569 516.357 357.994 515.945 357.261 515.562C356.539 515.179 355.722 514.767 354.808 514.327C354.233 514.057 353.607 513.73 352.931 513.346C352.254 512.952 351.611 512.472 351.003 511.909C350.394 511.345 349.892 510.663 349.497 509.862C349.114 509.05 348.922 508.08 348.922 506.953C348.922 505.476 349.26 504.213 349.937 503.164C350.613 502.115 351.578 501.315 352.829 500.762C354.092 500.198 355.581 499.916 357.295 499.916C358.58 499.916 359.803 500.069 360.965 500.373C362.138 500.666 363.361 501.095 364.635 501.659L362.944 505.735C361.805 505.273 360.784 504.917 359.882 504.669C358.98 504.41 358.061 504.28 357.125 504.28C356.471 504.28 355.913 504.387 355.451 504.602C354.989 504.805 354.639 505.098 354.402 505.481C354.165 505.853 354.047 506.287 354.047 506.784C354.047 507.37 354.216 507.866 354.554 508.272C354.904 508.667 355.423 509.05 356.111 509.422C356.81 509.794 357.678 510.228 358.715 510.725C359.978 511.322 361.055 511.948 361.946 512.602C362.848 513.245 363.541 514.006 364.026 514.885C364.511 515.754 364.754 516.836 364.754 518.133ZM389.364 500.272V516.272C389.364 517.975 388.986 519.514 388.23 520.89C387.486 522.254 386.353 523.337 384.831 524.137C383.32 524.938 381.414 525.338 379.114 525.338C375.844 525.338 373.352 524.504 371.638 522.835C369.924 521.166 369.067 518.956 369.067 516.205V500.272H374.293V515.41C374.293 517.451 374.71 518.883 375.545 519.706C376.379 520.529 377.614 520.941 379.249 520.941C380.399 520.941 381.329 520.743 382.04 520.349C382.761 519.954 383.291 519.345 383.63 518.522C383.968 517.699 384.137 516.65 384.137 515.376V500.272H389.364ZM405.922 504.28C404.919 504.28 404.028 504.478 403.25 504.872C402.483 505.256 401.835 505.814 401.305 506.547C400.786 507.28 400.392 508.165 400.121 509.202C399.85 510.24 399.715 511.407 399.715 512.703C399.715 514.451 399.929 515.945 400.358 517.186C400.797 518.415 401.474 519.356 402.387 520.01C403.301 520.653 404.479 520.974 405.922 520.974C406.926 520.974 407.93 520.862 408.933 520.636C409.948 520.411 411.047 520.089 412.231 519.672V524.07C411.138 524.521 410.061 524.842 409.001 525.034C407.941 525.237 406.751 525.338 405.432 525.338C402.884 525.338 400.786 524.814 399.14 523.765C397.505 522.705 396.293 521.228 395.503 519.334C394.714 517.428 394.319 515.207 394.319 512.67C394.319 510.798 394.573 509.084 395.081 507.528C395.588 505.972 396.332 504.624 397.313 503.485C398.294 502.346 399.506 501.467 400.95 500.847C402.393 500.227 404.051 499.916 405.922 499.916C407.152 499.916 408.381 500.074 409.61 500.39C410.85 500.694 412.034 501.117 413.162 501.659L411.47 505.921C410.546 505.481 409.615 505.098 408.679 504.771C407.744 504.444 406.825 504.28 405.922 504.28ZM431.75 525H417.509V500.272H431.75V504.568H422.752V509.997H431.124V514.293H422.752V520.67H431.75V525ZM451.523 518.133C451.523 519.599 451.168 520.873 450.457 521.955C449.747 523.038 448.709 523.872 447.345 524.459C445.992 525.045 444.346 525.338 442.406 525.338C441.549 525.338 440.709 525.282 439.886 525.169C439.074 525.056 438.29 524.893 437.535 524.679C436.791 524.453 436.08 524.177 435.404 523.85V518.979C436.576 519.497 437.794 519.965 439.057 520.382C440.32 520.8 441.572 521.008 442.812 521.008C443.669 521.008 444.357 520.896 444.876 520.67C445.406 520.444 445.789 520.134 446.026 519.74C446.263 519.345 446.381 518.894 446.381 518.387C446.381 517.766 446.172 517.236 445.755 516.797C445.338 516.357 444.763 515.945 444.03 515.562C443.308 515.179 442.491 514.767 441.577 514.327C441.002 514.057 440.376 513.73 439.7 513.346C439.023 512.952 438.381 512.472 437.772 511.909C437.163 511.345 436.661 510.663 436.266 509.862C435.883 509.05 435.691 508.08 435.691 506.953C435.691 505.476 436.029 504.213 436.706 503.164C437.383 502.115 438.347 501.315 439.598 500.762C440.861 500.198 442.35 499.916 444.064 499.916C445.349 499.916 446.573 500.069 447.734 500.373C448.907 500.666 450.13 501.095 451.404 501.659L449.713 505.735C448.574 505.273 447.554 504.917 446.652 504.669C445.749 504.41 444.83 504.28 443.895 504.28C443.241 504.28 442.682 504.387 442.22 504.602C441.758 504.805 441.408 505.098 441.171 505.481C440.935 505.853 440.816 506.287 440.816 506.784C440.816 507.37 440.985 507.866 441.324 508.272C441.673 508.667 442.192 509.05 442.88 509.422C443.579 509.794 444.447 510.228 445.484 510.725C446.747 511.322 447.824 511.948 448.715 512.602C449.617 513.245 450.311 514.006 450.795 514.885C451.28 515.754 451.523 516.836 451.523 518.133ZM470.602 518.133C470.602 519.599 470.247 520.873 469.536 521.955C468.826 523.038 467.788 523.872 466.424 524.459C465.071 525.045 463.425 525.338 461.485 525.338C460.628 525.338 459.788 525.282 458.965 525.169C458.153 525.056 457.369 524.893 456.614 524.679C455.87 524.453 455.159 524.177 454.483 523.85V518.979C455.655 519.497 456.873 519.965 458.136 520.382C459.399 520.8 460.651 521.008 461.891 521.008C462.748 521.008 463.436 520.896 463.955 520.67C464.485 520.444 464.868 520.134 465.105 519.74C465.342 519.345 465.46 518.894 465.46 518.387C465.46 517.766 465.251 517.236 464.834 516.797C464.417 516.357 463.842 515.945 463.109 515.562C462.387 515.179 461.57 514.767 460.656 514.327C460.081 514.057 459.455 513.73 458.779 513.346C458.102 512.952 457.46 512.472 456.851 511.909C456.242 511.345 455.74 510.663 455.345 509.862C454.962 509.05 454.77 508.08 454.77 506.953C454.77 505.476 455.109 504.213 455.785 503.164C456.462 502.115 457.426 501.315 458.677 500.762C459.94 500.198 461.429 499.916 463.143 499.916C464.428 499.916 465.652 500.069 466.813 500.373C467.986 500.666 469.209 501.095 470.483 501.659L468.792 505.735C467.653 505.273 466.633 504.917 465.731 504.669C464.829 504.41 463.91 504.28 462.974 504.28C462.32 504.28 461.761 504.387 461.299 504.602C460.837 504.805 460.487 505.098 460.25 505.481C460.014 505.853 459.895 506.287 459.895 506.784C459.895 507.37 460.064 507.866 460.403 508.272C460.752 508.667 461.271 509.05 461.959 509.422C462.658 509.794 463.526 510.228 464.564 510.725C465.826 511.322 466.903 511.948 467.794 512.602C468.696 513.245 469.39 514.006 469.875 514.885C470.359 515.754 470.602 516.836 470.602 518.133ZM480.243 525H475.084V500.272H489.258V504.568H480.243V510.944H488.632V515.224H480.243V525ZM514.223 500.272V516.272C514.223 517.975 513.845 519.514 513.09 520.89C512.346 522.254 511.212 523.337 509.69 524.137C508.179 524.938 506.274 525.338 503.973 525.338C500.703 525.338 498.211 524.504 496.497 522.835C494.783 521.166 493.926 518.956 493.926 516.205V500.272H499.153V515.41C499.153 517.451 499.57 518.883 500.404 519.706C501.239 520.529 502.474 520.941 504.109 520.941C505.259 520.941 506.189 520.743 506.899 520.349C507.621 519.954 508.151 519.345 508.489 518.522C508.828 517.699 508.997 516.65 508.997 515.376V500.272H514.223ZM520.278 525V500.272H525.522V520.67H535.552V525H520.278ZM539.865 525V500.272H545.108V520.67H555.138V525H539.865ZM567.147 510.454L572.306 500.272H577.955L569.752 515.376V525H564.543V515.545L556.339 500.272H562.022L567.147 510.454Z" fill="black"/>
<defs>
<filter id="filter0_d_409_1714" x="0.980565" y="0.980565" width="927.181" height="776.181" filterUnits="userSpaceOnUse" color-interpolation-filters="sRGB">
<feFlood flood-opacity="0" result="BackgroundImageFix"/>
<feColorMatrix in="SourceAlpha" type="matrix" values="0 0 0 0 0 0 0 0 0 0 0 0 0 0 0 0 0 0 127 0" result="hardAlpha"/>
<feMorphology radius="6.1704" operator="dilate" in="SourceAlpha" result="effect1_dropShadow_409_1714"/>
<feOffset dx="2.571" dy="2.571"/>
<feGaussianBlur stdDeviation="25.71"/>
<feColorMatrix type="matrix" values="0 0 0 0 0.875052 0 0 0 0 0.875052 0 0 0 0 0.875052 0 0 0 1 0"/>
<feBlend mode="normal" in2="BackgroundImageFix" result="effect1_dropShadow_409_1714"/>
<feBlend mode="normal" in="SourceGraphic" in2="effect1_dropShadow_409_1714" result="shape"/>
</filter>
</defs>
</svg>
